{
  "accessors": [
    {
      "bufferView": 2,
      "componentType": 5126,
      "count": 2699,
      "max": [
        0.7153114676475525,
        0.7153114080429077,
        0.23584790527820587
      ],
      "min": [
        -0.7153114676475525,
        -0.7153114676475525,
        -0.23981532454490662
      ],
      "type": "VEC3"
    },
    {
      "bufferView": 2,
      "byteOffset": 32388,
      "componentType": 5126,
      "count": 2699,
      "max": [
        0.9987955093383789,
        0.9987955093383789,
        0.998725414276123
      ],
      "min": [
        -0.9987955093383789,
        -0.9987955689430237,
        -0.998725414276123
      ],
      "type": "VEC3"
    },
    {
      "bufferView": 1,
      "componentType": 5126,
      "count": 2699,
      "max": [
        0.8750365972518921,
        0.9968986511230469
      ],
      "min": [
        0.0017566068563610315,
        0.03714621067047119
      ],
      "type": "VEC2"
    },
    {
      "bufferView": 0,
      "componentType": 5125,
      "count": 14592,
      "type": "SCALAR"
    }
  ],
  "asset": {
    "extras": {
      "author": "Abdulowski (https://sketchfab.com/Abdulowski)",
      "license": "CC-BY-4.0 (http://creativecommons.org/licenses/by/4.0/)",
      "source": "https://sketchfab.com/3d-models/saurons-ring-cd2384de5c5042ca8c8bc733945c4fcf",
      "title": "Sauron's Ring"
    },
    "generator": "Sketchfab-12.64.0",
    "version": "2.0"
  },
  "bufferViews": [
    {
      "buffer": 0,
      "byteLength": 58368,
      "name": "floatBufferViews",
      "target": 34963
    },
    {
      "buffer": 0,
      "byteLength": 21592,
      "byteOffset": 58368,
      "byteStride": 8,
      "name": "floatBufferViews",
      "target": 34962
    },
    {
      "buffer": 0,
      "byteLength": 64776,
      "byteOffset": 79960,
      "byteStride": 12,
      "name": "floatBufferViews",
      "target": 34962
    }
  ],
  "buffers": [
    {
      "byteLength": 144736,
      "uri": "scene.bin"
    }
  ],
  "images": [
    {
      "uri": "textures/Material.002_emissive.png"
    }
  ],
  "materials": [
    {
      "doubleSided": true,
      "emissiveFactor": [
        1.0,
        1.0,
        1.0
      ],
      "emissiveTexture": {
        "index": 0
      },
      "name": "Material.002",
      "pbrMetallicRoughness": {
        "baseColorFactor": [
          1.0,
          0.3049873140698861,
          0.0,
          1.0
        ],
        "roughnessFactor": 0.09899281931549411
      }
    }
  ],
  "meshes": [
    {
      "name": "Cylinder_Material.002_0",
      "primitives": [
        {
          "attributes": {
            "NORMAL": 1,
            "POSITION": 0,
            "TEXCOORD_0": 2
          },
          "indices": 3,
          "material": 0,
          "mode": 4
        }
      ]
    }
  ],
  "nodes": [
    {
      "children": [
        1
      ],
      "matrix": [
        1.0,
        0.0,
        0.0,
        0.0,
        0.0,
        2.220446049250313e-16,
        -1.0,
        0.0,
        0.0,
        1.0,
        2.220446049250313e-16,
        0.0,
        0.0,
        0.0,
        0.0,
        1.0
      ],
      "name": "Sketchfab_model"
    },
    {
      "children": [
        2
      ],
      "matrix": [
        0.009999999776482582,
        0.0,
        0.0,
        0.0,
        0.0,
        0.0,
        0.009999999776482582,
        0.0,
        0.0,
        -0.009999999776482582,
        0.0,
        0.0,
        0.0,
        0.0,
        0.0,
        1.0
      ],
      "name": "277575c4da514580ba31188928bd13e1.fbx"
    },
    {
      "children": [
        3
      ],
      "name": "RootNode"
    },
    {
      "children": [
        4
      ],
      "matrix": [
        44.17415237426758,
        0.0,
        0.0,
        0.0,
        0.0,
        -7.1968829163739565e-06,
        -44.174152374266995,
        0.0,
        0.0,
        28.536132812499623,
        -4.649126145028033e-06,
        0.0,
        0.0,
        0.0,
        0.0,
        1.0
      ],
      "name": "Cylinder"
    },
    {
      "mesh": 0,
      "name": "Cylinder_Material.002_0"
    }
  ],
  "samplers": [
    {
      "magFilter": 9729,
      "minFilter": 9987,
      "wrapS": 10497,
      "wrapT": 10497
    }
  ],
  "scene": 0,
  "scenes": [
    {
      "name": "Sketchfab_Scene",
      "nodes": [
        0
      ]
    }
  ],
  "textures": [
    {
      "sampler": 0,
      "source": 0
    }
  ]
}
