{
  "accessors": [
    {
      "bufferView": 2,
      "componentType": 5126,
      "count": 42921,
      "max": [
        5.027289867401123,
        -0.628233015537262,
        4.637899875640869
      ],
      "min": [
        -4.601406097412109,
        -16.958200454711914,
        -5.744176864624023
      ],
      "type": "VEC3"
    },
    {
      "bufferView": 2,
      "byteOffset": 515052,
      "componentType": 5126,
      "count": 42921,
      "max": [
        0.9999763369560242,
        1.0,
        0.9999898672103882
      ],
      "min": [
        -0.9999949932098389,
        -1.0,
        -0.999996542930603
      ],
      "type": "VEC3"
    },
    {
      "bufferView": 3,
      "componentType": 5126,
      "count": 42921,
      "max": [
        0.9998468160629272,
        0.9999696016311646,
        0.9998651146888733,
        1.0
      ],
      "min": [
        -1.0,
        -0.9999552965164185,
        -0.9999948143959045,
        -1.0
      ],
      "type": "VEC4"
    },
    {
      "bufferView": 1,
      "componentType": 5126,
      "count": 42921,
      "max": [
        0.9985349774360657,
        0.9985309839248657
      ],
      "min": [
        0.0014649999793618917,
        0.0014690000098198652
      ],
      "type": "VEC2"
    },
    {
      "bufferView": 0,
      "componentType": 5125,
      "count": 175953,
      "type": "SCALAR"
    }
  ],
  "asset": {
    "extras": {
      "author": "Game Ready Art (https://sketchfab.com/jesperbj)",
      "license": "CC-BY-4.0 (http://creativecommons.org/licenses/by/4.0/)",
      "source": "https://sketchfab.com/3d-models/argonath-isildur-3d-scan-28bd4133d8b043d08cebdd6f49980fc4",
      "title": "Argonath (Isildur) - 3D Scan"
    },
    "generator": "Sketchfab-12.66.0",
    "version": "2.0"
  },
  "bufferViews": [
    {
      "buffer": 0,
      "byteLength": 703812,
      "name": "floatBufferViews",
      "target": 34963
    },
    {
      "buffer": 0,
      "byteLength": 343368,
      "byteOffset": 703812,
      "byteStride": 8,
      "name": "floatBufferViews",
      "target": 34962
    },
    {
      "buffer": 0,
      "byteLength": 1030104,
      "byteOffset": 1047180,
      "byteStride": 12,
      "name": "floatBufferViews",
      "target": 34962
    },
    {
      "buffer": 0,
      "byteLength": 686736,
      "byteOffset": 2077284,
      "byteStride": 16,
      "name": "floatBufferViews",
      "target": 34962
    }
  ],
  "buffers": [
    {
      "byteLength": 2764020,
      "uri": "scene.bin"
    }
  ],
  "images": [
    {
      "uri": "textures/Material_0_baseColor.jpeg"
    },
    {
      "uri": "textures/Material_0_normal.png"
    }
  ],
  "materials": [
    {
      "doubleSided": true,
      "name": "Material_0",
      "normalTexture": {
        "index": 1
      },
      "pbrMetallicRoughness": {
        "baseColorTexture": {
          "index": 0
        },
        "metallicFactor": 0.0,
        "roughnessFactor": 0.6
      }
    }
  ],
  "meshes": [
    {
      "name": "Object_0",
      "primitives": [
        {
          "attributes": {
            "NORMAL": 1,
            "POSITION": 0,
            "TANGENT": 2,
            "TEXCOORD_0": 3
          },
          "indices": 4,
          "material": 0,
          "mode": 4
        }
      ]
    }
  ],
  "nodes": [
    {
      "children": [
        1
      ],
      "matrix": [
        3.7869847808026744e-16,
        0.0,
        -0.8527531623840332,
        0.0,
        1.8934923904013372e-16,
        -0.8527531623840332,
        -1.8934923904013372e-16,
        0.0,
        -0.8527531623840332,
        4.2043976975521807e-32,
        -1.8934923904013372e-16,
        0.0,
        -0.34020185470581055,
        -9.346352577209474,
        9.006150245666502,
        1.0
      ],
      "name": "Sketchfab_model"
    },
    {
      "children": [
        2
      ],
      "name": "Test.obj.cleaner.materialmerger.gles"
    },
    {
      "mesh": 0,
      "name": "Object_2"
    }
  ],
  "samplers": [
    {
      "magFilter": 9729,
      "minFilter": 9987,
      "wrapS": 10497,
      "wrapT": 10497
    }
  ],
  "scene": 0,
  "scenes": [
    {
      "name": "Sketchfab_Scene",
      "nodes": [
        0
      ]
    }
  ],
  "textures": [
    {
      "sampler": 0,
      "source": 0
    },
    {
      "sampler": 0,
      "source": 1
    }
  ]
}
