{
  "accessors": [
    {
      "bufferView": 2,
      "componentType": 5126,
      "count": 41813,
      "max": [
        0.09861837327480316,
        0.06686930358409882,
        0.07999003678560257
      ],
      "min": [
        -0.05645860731601715,
        -0.06639993190765381,
        -0.07030600309371948
      ],
      "type": "VEC3"
    },
    {
      "bufferView": 2,
      "byteOffset": 501756,
      "componentType": 5126,
      "count": 41813,
      "max": [
        0.9999859929084778,
        0.9999948740005493,
        0.9999969005584717
      ],
      "min": [
        -0.9999809861183167,
        -0.9890621304512024,
        -0.9999911785125732
      ],
      "type": "VEC3"
    },
    {
      "bufferView": 1,
      "componentType": 5126,
      "count": 41813,
      "max": [
        0.9999135136604309,
        0.9944239258766174
      ],
      "min": [
        0.0069013857282698154,
        4.3439053115434945e-05
      ],
      "type": "VEC2"
    },
    {
      "bufferView": 1,
      "byteOffset": 334504,
      "componentType": 5126,
      "count": 41813,
      "max": [
        0.9999135136604309,
        0.9944239258766174
      ],
      "min": [
        0.0069013857282698154,
        4.3439053115434945e-05
      ],
      "type": "VEC2"
    },
    {
      "bufferView": 1,
      "byteOffset": 669008,
      "componentType": 5126,
      "count": 41813,
      "max": [
        0.9999135136604309,
        0.9944239258766174
      ],
      "min": [
        0.0069013857282698154,
        4.3439053115434945e-05
      ],
      "type": "VEC2"
    },
    {
      "bufferView": 0,
      "componentType": 5125,
      "count": 148119,
      "type": "SCALAR"
    }
  ],
  "asset": {
    "extras": {
      "author": "thequartermexican (https://sketchfab.com/thequartermexican)",
      "license": "CC-BY-NC-SA-4.0 (http://creativecommons.org/licenses/by-nc-sa/4.0/)",
      "source": "https://sketchfab.com/3d-models/minas-tirith-3837188c7b894bf2a4971d7f30e7dfdd",
      "title": "Minas Tirith"
    },
    "generator": "Sketchfab-12.67.0",
    "version": "2.0"
  },
  "bufferViews": [
    {
      "buffer": 0,
      "byteLength": 592476,
      "name": "floatBufferViews",
      "target": 34963
    },
    {
      "buffer": 0,
      "byteLength": 1003512,
      "byteOffset": 592476,
      "byteStride": 8,
      "name": "floatBufferViews",
      "target": 34962
    },
    {
      "buffer": 0,
      "byteLength": 1003512,
      "byteOffset": 1595988,
      "byteStride": 12,
      "name": "floatBufferViews",
      "target": 34962
    }
  ],
  "buffers": [
    {
      "byteLength": 2599500,
      "uri": "scene.bin"
    }
  ],
  "extensionsUsed": [
    "KHR_materials_unlit"
  ],
  "images": [
    {
      "uri": "textures/material_0_baseColor.jpeg"
    }
  ],
  "materials": [
    {
      "doubleSided": true,
      "extensions": {
        "KHR_materials_unlit": {}
      },
      "name": "material_0",
      "pbrMetallicRoughness": {
        "baseColorTexture": {
          "index": 0
        },
        "metallicFactor": 0.0
      }
    }
  ],
  "meshes": [
    {
      "name": "Object_0",
      "primitives": [
        {
          "attributes": {
            "NORMAL": 1,
            "POSITION": 0,
            "TEXCOORD_0": 2,
            "TEXCOORD_1": 3,
            "TEXCOORD_2": 4
          },
          "indices": 5,
          "material": 0,
          "mode": 4
        }
      ]
    }
  ],
  "nodes": [
    {
      "children": [
        1
      ],
      "matrix": [
        1.0,
        0.0,
        0.0,
        0.0,
        0.0,
        2.220446049250313e-16,
        -1.0,
        0.0,
        0.0,
        1.0,
        2.220446049250313e-16,
        0.0,
        0.0,
        0.0,
        0.0,
        1.0
      ],
      "name": "Sketchfab_model"
    },
    {
      "children": [
        2
      ],
      "name": "root"
    },
    {
      "children": [
        3
      ],
      "matrix": [
        1.0,
        0.0,
        0.0,
        0.0,
        0.0,
        2.220446049250313e-16,
        1.0,
        0.0,
        0.0,
        -1.0,
        2.220446049250313e-16,
        0.0,
        0.0,
        0.0,
        0.0,
        1.0
      ],
      "name": "GLTF_SceneRootNode"
    },
    {
      "children": [
        4
      ],
      "name": "_0"
    },
    {
      "mesh": 0,
      "name": "Object_4"
    }
  ],
  "samplers": [
    {
      "magFilter": 9729,
      "minFilter": 9987,
      "wrapS": 10497,
      "wrapT": 10497
    }
  ],
  "scene": 0,
  "scenes": [
    {
      "name": "Sketchfab_Scene",
      "nodes": [
        0
      ]
    }
  ],
  "textures": [
    {
      "sampler": 0,
      "source": 0
    }
  ]
}
